<?xml version="1.0" encoding="UTF-8" standalone="no"?>
<!DOCTYPE svg PUBLIC "-//W3C//DTD SVG 1.1//EN"
 "http://www.w3.org/Graphics/SVG/1.1/DTD/svg11.dtd">
<!-- Generated by graphviz version 9.0.0 (0)
 -->
<!-- Title: G Pages: 1 -->
<svg width="1704pt" height="357pt"
 viewBox="0.00 0.00 1704.20 356.51" xmlns="http://www.w3.org/2000/svg" xmlns:xlink="http://www.w3.org/1999/xlink">
<g id="graph0" class="graph" transform="scale(1 1) rotate(0) translate(21.6 334.91)">
<title>G</title>
<polygon fill="#111111" stroke="none" points="-21.6,21.6 -21.6,-334.91 1682.6,-334.91 1682.6,21.6 -21.6,21.6"/>
<!-- App.tsx -->
<g id="node1" class="node">
<title>App.tsx</title>
<path fill="none" stroke="#c6c5fe" d="M177.08,-206.75C177.08,-206.75 131.92,-206.75 131.92,-206.75 127.96,-206.75 124,-202.79 124,-198.83 124,-198.83 124,-190.92 124,-190.92 124,-186.96 127.96,-183 131.92,-183 131.92,-183 177.08,-183 177.08,-183 181.04,-183 185,-186.96 185,-190.92 185,-190.92 185,-198.83 185,-198.83 185,-202.79 181.04,-206.75 177.08,-206.75"/>
<text text-anchor="middle" x="154.5" y="-189.45" font-family="Arial" font-size="14.00" fill="#c6c5fe">App.tsx</text>
</g>
<!-- components/Dialog.tsx -->
<g id="node2" class="node">
<title>components/Dialog.tsx</title>
<path fill="none" stroke="#cfffac" d="M695.83,-296.75C695.83,-296.75 558.42,-296.75 558.42,-296.75 554.46,-296.75 550.5,-292.79 550.5,-288.83 550.5,-288.83 550.5,-280.92 550.5,-280.92 550.5,-276.96 554.46,-273 558.42,-273 558.42,-273 695.83,-273 695.83,-273 699.79,-273 703.75,-276.96 703.75,-280.92 703.75,-280.92 703.75,-288.83 703.75,-288.83 703.75,-292.79 699.79,-296.75 695.83,-296.75"/>
<text text-anchor="middle" x="627.12" y="-279.45" font-family="Arial" font-size="14.00" fill="#cfffac">components/Dialog.tsx</text>
</g>
<!-- App.tsx&#45;&gt;components/Dialog.tsx -->
<g id="edge1" class="edge">
<title>App.tsx&#45;&gt;components/Dialog.tsx</title>
<path fill="none" stroke="#757575" d="M161.24,-207.16C170.7,-225.77 191.49,-260.45 221,-274.88 330.38,-328.35 477,-314.1 560.53,-299.25"/>
<polygon fill="#757575" stroke="#757575" points="560.95,-302.73 570.15,-297.48 559.68,-295.85 560.95,-302.73"/>
</g>
<!-- components/ExportDialog.tsx -->
<g id="node3" class="node">
<title>components/ExportDialog.tsx</title>
<path fill="none" stroke="#c6c5fe" d="M429.71,-265.75C429.71,-265.75 253.29,-265.75 253.29,-265.75 249.33,-265.75 245.38,-261.79 245.38,-257.83 245.38,-257.83 245.38,-249.92 245.38,-249.92 245.38,-245.96 249.33,-242 253.29,-242 253.29,-242 429.71,-242 429.71,-242 433.67,-242 437.62,-245.96 437.62,-249.92 437.62,-249.92 437.62,-257.83 437.62,-257.83 437.62,-261.79 433.67,-265.75 429.71,-265.75"/>
<text text-anchor="middle" x="341.5" y="-248.45" font-family="Arial" font-size="14.00" fill="#c6c5fe">components/ExportDialog.tsx</text>
</g>
<!-- App.tsx&#45;&gt;components/ExportDialog.tsx -->
<g id="edge2" class="edge">
<title>App.tsx&#45;&gt;components/ExportDialog.tsx</title>
<path fill="none" stroke="#757575" d="M176.43,-207.13C189.01,-214.05 205.52,-222.39 221,-227.88 232.92,-232.1 245.76,-235.76 258.45,-238.9"/>
<polygon fill="#757575" stroke="#757575" points="257.52,-242.28 268.06,-241.18 259.13,-235.47 257.52,-242.28"/>
</g>
<!-- components/Tooltip.tsx -->
<g id="node4" class="node">
<title>components/Tooltip.tsx</title>
<path fill="none" stroke="#cfffac" d="M1244.21,-167.75C1244.21,-167.75 1106.04,-167.75 1106.04,-167.75 1102.08,-167.75 1098.12,-163.79 1098.12,-159.83 1098.12,-159.83 1098.12,-151.92 1098.12,-151.92 1098.12,-147.96 1102.08,-144 1106.04,-144 1106.04,-144 1244.21,-144 1244.21,-144 1248.17,-144 1252.12,-147.96 1252.12,-151.92 1252.12,-151.92 1252.12,-159.83 1252.12,-159.83 1252.12,-163.79 1248.17,-167.75 1244.21,-167.75"/>
<text text-anchor="middle" x="1175.12" y="-150.45" font-family="Arial" font-size="14.00" fill="#cfffac">components/Tooltip.tsx</text>
</g>
<!-- App.tsx&#45;&gt;components/Tooltip.tsx -->
<g id="edge3" class="edge">
<title>App.tsx&#45;&gt;components/Tooltip.tsx</title>
<path fill="none" stroke="#757575" d="M185.43,-193.73C319.82,-188.58 870.24,-167.51 1086.4,-159.23"/>
<polygon fill="#757575" stroke="#757575" points="1086.3,-162.74 1096.16,-158.86 1086.04,-155.75 1086.3,-162.74"/>
</g>
<!-- components/control/DownloadButton.tsx -->
<g id="node5" class="node">
<title>components/control/DownloadButton.tsx</title>
<path fill="none" stroke="#cfffac" d="M748.33,-245.75C748.33,-245.75 505.92,-245.75 505.92,-245.75 501.96,-245.75 498,-241.79 498,-237.83 498,-237.83 498,-229.92 498,-229.92 498,-225.96 501.96,-222 505.92,-222 505.92,-222 748.33,-222 748.33,-222 752.29,-222 756.25,-225.96 756.25,-229.92 756.25,-229.92 756.25,-237.83 756.25,-237.83 756.25,-241.79 752.29,-245.75 748.33,-245.75"/>
<text text-anchor="middle" x="627.12" y="-228.45" font-family="Arial" font-size="14.00" fill="#cfffac">components/control/DownloadButton.tsx</text>
</g>
<!-- App.tsx&#45;&gt;components/control/DownloadButton.tsx -->
<g id="edge4" class="edge">
<title>App.tsx&#45;&gt;components/control/DownloadButton.tsx</title>
<path fill="none" stroke="#757575" d="M185.3,-197.34C244.61,-202.26 380.82,-213.55 486.25,-222.28"/>
<polygon fill="#757575" stroke="#757575" points="485.89,-225.77 496.14,-223.1 486.47,-218.79 485.89,-225.77"/>
</g>
<!-- components/control/UploadButton.tsx -->
<g id="node6" class="node">
<title>components/control/UploadButton.tsx</title>
<path fill="none" stroke="#cfffac" d="M454.08,-147.75C454.08,-147.75 228.92,-147.75 228.92,-147.75 224.96,-147.75 221,-143.79 221,-139.83 221,-139.83 221,-131.92 221,-131.92 221,-127.96 224.96,-124 228.92,-124 228.92,-124 454.08,-124 454.08,-124 458.04,-124 462,-127.96 462,-131.92 462,-131.92 462,-139.83 462,-139.83 462,-143.79 458.04,-147.75 454.08,-147.75"/>
<text text-anchor="middle" x="341.5" y="-130.45" font-family="Arial" font-size="14.00" fill="#cfffac">components/control/UploadButton.tsx</text>
</g>
<!-- App.tsx&#45;&gt;components/control/UploadButton.tsx -->
<g id="edge5" class="edge">
<title>App.tsx&#45;&gt;components/control/UploadButton.tsx</title>
<path fill="none" stroke="#757575" d="M176.43,-182.62C189.01,-175.7 205.52,-167.36 221,-161.88 232.92,-157.65 245.76,-153.99 258.45,-150.85"/>
<polygon fill="#757575" stroke="#757575" points="259.13,-154.28 268.06,-148.57 257.52,-147.47 259.13,-154.28"/>
</g>
<!-- components/notes/Document.tsx -->
<g id="node7" class="node">
<title>components/notes/Document.tsx</title>
<path fill="none" stroke="#c6c5fe" d="M440.58,-105.75C440.58,-105.75 242.42,-105.75 242.42,-105.75 238.46,-105.75 234.5,-101.79 234.5,-97.83 234.5,-97.83 234.5,-89.92 234.5,-89.92 234.5,-85.96 238.46,-82 242.42,-82 242.42,-82 440.58,-82 440.58,-82 444.54,-82 448.5,-85.96 448.5,-89.92 448.5,-89.92 448.5,-97.83 448.5,-97.83 448.5,-101.79 444.54,-105.75 440.58,-105.75"/>
<text text-anchor="middle" x="341.5" y="-88.45" font-family="Arial" font-size="14.00" fill="#c6c5fe">components/notes/Document.tsx</text>
</g>
<!-- App.tsx&#45;&gt;components/notes/Document.tsx -->
<g id="edge6" class="edge">
<title>App.tsx&#45;&gt;components/notes/Document.tsx</title>
<path fill="none" stroke="#757575" d="M161.85,-182.52C171.83,-164.48 192.96,-131.28 221,-114.88 223.64,-113.33 226.36,-111.9 229.15,-110.56"/>
<polygon fill="#757575" stroke="#757575" points="230.28,-113.89 238.11,-106.75 227.53,-107.44 230.28,-113.89"/>
</g>
<!-- components/ExportDialog.tsx&#45;&gt;components/Dialog.tsx -->
<g id="edge7" class="edge">
<title>components/ExportDialog.tsx&#45;&gt;components/Dialog.tsx</title>
<path fill="none" stroke="#757575" d="M437.73,-264.28C470.55,-267.87 507.12,-271.87 539.24,-275.38"/>
<polygon fill="#757575" stroke="#757575" points="538.58,-278.83 548.9,-276.43 539.34,-271.87 538.58,-278.83"/>
</g>
<!-- components/ExportDialog.tsx&#45;&gt;components/control/DownloadButton.tsx -->
<g id="edge8" class="edge">
<title>components/ExportDialog.tsx&#45;&gt;components/control/DownloadButton.tsx</title>
<path fill="none" stroke="#757575" d="M437.73,-247.16C453.36,-246.06 469.83,-244.9 486.27,-243.74"/>
<polygon fill="#757575" stroke="#757575" points="486.4,-247.24 496.12,-243.04 485.9,-240.25 486.4,-247.24"/>
</g>
<!-- components/notes/Block.tsx -->
<g id="node9" class="node">
<title>components/notes/Block.tsx</title>
<path fill="none" stroke="#c6c5fe" d="M711.58,-105.75C711.58,-105.75 542.67,-105.75 542.67,-105.75 538.71,-105.75 534.75,-101.79 534.75,-97.83 534.75,-97.83 534.75,-89.92 534.75,-89.92 534.75,-85.96 538.71,-82 542.67,-82 542.67,-82 711.58,-82 711.58,-82 715.54,-82 719.5,-85.96 719.5,-89.92 719.5,-89.92 719.5,-97.83 719.5,-97.83 719.5,-101.79 715.54,-105.75 711.58,-105.75"/>
<text text-anchor="middle" x="627.12" y="-88.45" font-family="Arial" font-size="14.00" fill="#c6c5fe">components/notes/Block.tsx</text>
</g>
<!-- components/notes/Document.tsx&#45;&gt;components/notes/Block.tsx -->
<g id="edge12" class="edge">
<title>components/notes/Document.tsx&#45;&gt;components/notes/Block.tsx</title>
<path fill="none" stroke="#757575" d="M448.92,-93.88C473.21,-93.88 498.98,-93.88 523.12,-93.88"/>
<polygon fill="#757575" stroke="#757575" points="522.94,-97.38 532.94,-93.88 522.94,-90.38 522.94,-97.38"/>
</g>
<!-- useHistory.ts -->
<g id="node13" class="node">
<title>useHistory.ts</title>
<path fill="none" stroke="#cfffac" d="M665.83,-147.75C665.83,-147.75 588.42,-147.75 588.42,-147.75 584.46,-147.75 580.5,-143.79 580.5,-139.83 580.5,-139.83 580.5,-131.92 580.5,-131.92 580.5,-127.96 584.46,-124 588.42,-124 588.42,-124 665.83,-124 665.83,-124 669.79,-124 673.75,-127.96 673.75,-131.92 673.75,-131.92 673.75,-139.83 673.75,-139.83 673.75,-143.79 669.79,-147.75 665.83,-147.75"/>
<text text-anchor="middle" x="627.12" y="-130.45" font-family="Arial" font-size="14.00" fill="#cfffac">useHistory.ts</text>
</g>
<!-- components/notes/Document.tsx&#45;&gt;useHistory.ts -->
<g id="edge13" class="edge">
<title>components/notes/Document.tsx&#45;&gt;useHistory.ts</title>
<path fill="none" stroke="#757575" d="M426.06,-106.25C472.07,-113.06 527.97,-121.34 568.97,-127.41"/>
<polygon fill="#757575" stroke="#757575" points="568.22,-130.84 578.62,-128.84 569.25,-123.91 568.22,-130.84"/>
</g>
<!-- components/AutosizeInput.tsx -->
<g id="node8" class="node">
<title>components/AutosizeInput.tsx</title>
<path fill="none" stroke="#cfffac" d="M1526.46,-23.75C1526.46,-23.75 1345.54,-23.75 1345.54,-23.75 1341.58,-23.75 1337.62,-19.79 1337.62,-15.83 1337.62,-15.83 1337.62,-7.92 1337.62,-7.92 1337.62,-3.96 1341.58,0 1345.54,0 1345.54,0 1526.46,0 1526.46,0 1530.42,0 1534.38,-3.96 1534.38,-7.92 1534.38,-7.92 1534.38,-15.83 1534.38,-15.83 1534.38,-19.79 1530.42,-23.75 1526.46,-23.75"/>
<text text-anchor="middle" x="1436" y="-6.45" font-family="Arial" font-size="14.00" fill="#cfffac">components/AutosizeInput.tsx</text>
</g>
<!-- components/notes/EmbedBlock.tsx -->
<g id="node10" class="node">
<title>components/notes/EmbedBlock.tsx</title>
<path fill="none" stroke="#c6c5fe" d="M1012.58,-147.75C1012.58,-147.75 800.17,-147.75 800.17,-147.75 796.21,-147.75 792.25,-143.79 792.25,-139.83 792.25,-139.83 792.25,-131.92 792.25,-131.92 792.25,-127.96 796.21,-124 800.17,-124 800.17,-124 1012.58,-124 1012.58,-124 1016.54,-124 1020.5,-127.96 1020.5,-131.92 1020.5,-131.92 1020.5,-139.83 1020.5,-139.83 1020.5,-143.79 1016.54,-147.75 1012.58,-147.75"/>
<text text-anchor="middle" x="906.38" y="-130.45" font-family="Arial" font-size="14.00" fill="#c6c5fe">components/notes/EmbedBlock.tsx</text>
</g>
<!-- components/notes/Block.tsx&#45;&gt;components/notes/EmbedBlock.tsx -->
<g id="edge9" class="edge">
<title>components/notes/Block.tsx&#45;&gt;components/notes/EmbedBlock.tsx</title>
<path fill="none" stroke="#757575" d="M709.81,-106.25C742.1,-111.14 779.38,-116.79 812.67,-121.83"/>
<polygon fill="#757575" stroke="#757575" points="811.89,-125.25 822.3,-123.29 812.94,-118.33 811.89,-125.25"/>
</g>
<!-- components/notes/NoteBlock.tsx -->
<g id="node11" class="node">
<title>components/notes/NoteBlock.tsx</title>
<path fill="none" stroke="#c6c5fe" d="M1005.08,-63.75C1005.08,-63.75 807.67,-63.75 807.67,-63.75 803.71,-63.75 799.75,-59.79 799.75,-55.83 799.75,-55.83 799.75,-47.92 799.75,-47.92 799.75,-43.96 803.71,-40 807.67,-40 807.67,-40 1005.08,-40 1005.08,-40 1009.04,-40 1013,-43.96 1013,-47.92 1013,-47.92 1013,-55.83 1013,-55.83 1013,-59.79 1009.04,-63.75 1005.08,-63.75"/>
<text text-anchor="middle" x="906.38" y="-46.45" font-family="Arial" font-size="14.00" fill="#c6c5fe">components/notes/NoteBlock.tsx</text>
</g>
<!-- components/notes/Block.tsx&#45;&gt;components/notes/NoteBlock.tsx -->
<g id="edge10" class="edge">
<title>components/notes/Block.tsx&#45;&gt;components/notes/NoteBlock.tsx</title>
<path fill="none" stroke="#757575" d="M709.81,-81.5C742.1,-76.61 779.38,-70.96 812.67,-65.92"/>
<polygon fill="#757575" stroke="#757575" points="812.94,-69.42 822.3,-64.46 811.89,-62.5 812.94,-69.42"/>
</g>
<!-- components/notes/TableBlock.tsx -->
<g id="node12" class="node">
<title>components/notes/TableBlock.tsx</title>
<path fill="none" stroke="#c6c5fe" d="M1006.96,-105.75C1006.96,-105.75 805.79,-105.75 805.79,-105.75 801.83,-105.75 797.88,-101.79 797.88,-97.83 797.88,-97.83 797.88,-89.92 797.88,-89.92 797.88,-85.96 801.83,-82 805.79,-82 805.79,-82 1006.96,-82 1006.96,-82 1010.92,-82 1014.88,-85.96 1014.88,-89.92 1014.88,-89.92 1014.88,-97.83 1014.88,-97.83 1014.88,-101.79 1010.92,-105.75 1006.96,-105.75"/>
<text text-anchor="middle" x="906.38" y="-88.45" font-family="Arial" font-size="14.00" fill="#c6c5fe">components/notes/TableBlock.tsx</text>
</g>
<!-- components/notes/Block.tsx&#45;&gt;components/notes/TableBlock.tsx -->
<g id="edge11" class="edge">
<title>components/notes/Block.tsx&#45;&gt;components/notes/TableBlock.tsx</title>
<path fill="none" stroke="#757575" d="M719.68,-93.88C740.99,-93.88 764,-93.88 786.31,-93.88"/>
<polygon fill="#757575" stroke="#757575" points="786.04,-97.38 796.04,-93.88 786.04,-90.38 786.04,-97.38"/>
</g>
<!-- components/notes/EmbedBlock.tsx&#45;&gt;components/Tooltip.tsx -->
<g id="edge14" class="edge">
<title>components/notes/EmbedBlock.tsx&#45;&gt;components/Tooltip.tsx</title>
<path fill="none" stroke="#757575" d="M1020.89,-144.39C1042.78,-146.03 1065.41,-147.72 1086.33,-149.29"/>
<polygon fill="#757575" stroke="#757575" points="1086.02,-152.78 1096.26,-150.04 1086.55,-145.8 1086.02,-152.78"/>
</g>
<!-- components/notes/MathSegment.tsx -->
<g id="node16" class="node">
<title>components/notes/MathSegment.tsx</title>
<path fill="none" stroke="#c6c5fe" d="M1285.83,-65.75C1285.83,-65.75 1064.42,-65.75 1064.42,-65.75 1060.46,-65.75 1056.5,-61.79 1056.5,-57.83 1056.5,-57.83 1056.5,-49.92 1056.5,-49.92 1056.5,-45.96 1060.46,-42 1064.42,-42 1064.42,-42 1285.83,-42 1285.83,-42 1289.79,-42 1293.75,-45.96 1293.75,-49.92 1293.75,-49.92 1293.75,-57.83 1293.75,-57.83 1293.75,-61.79 1289.79,-65.75 1285.83,-65.75"/>
<text text-anchor="middle" x="1175.12" y="-48.45" font-family="Arial" font-size="14.00" fill="#c6c5fe">components/notes/MathSegment.tsx</text>
</g>
<!-- components/notes/NoteBlock.tsx&#45;&gt;components/notes/MathSegment.tsx -->
<g id="edge17" class="edge">
<title>components/notes/NoteBlock.tsx&#45;&gt;components/notes/MathSegment.tsx</title>
<path fill="none" stroke="#757575" d="M1013.18,-52.67C1023.55,-52.75 1034.14,-52.83 1044.7,-52.9"/>
<polygon fill="#757575" stroke="#757575" points="1044.6,-56.4 1054.62,-52.98 1044.65,-49.4 1044.6,-56.4"/>
</g>
<!-- components/notes/TextSegment.tsx -->
<g id="node17" class="node">
<title>components/notes/TextSegment.tsx</title>
<path fill="none" stroke="#c6c5fe" d="M1282.83,-23.75C1282.83,-23.75 1067.42,-23.75 1067.42,-23.75 1063.46,-23.75 1059.5,-19.79 1059.5,-15.83 1059.5,-15.83 1059.5,-7.92 1059.5,-7.92 1059.5,-3.96 1063.46,0 1067.42,0 1067.42,0 1282.83,0 1282.83,0 1286.79,0 1290.75,-3.96 1290.75,-7.92 1290.75,-7.92 1290.75,-15.83 1290.75,-15.83 1290.75,-19.79 1286.79,-23.75 1282.83,-23.75"/>
<text text-anchor="middle" x="1175.12" y="-6.45" font-family="Arial" font-size="14.00" fill="#c6c5fe">components/notes/TextSegment.tsx</text>
</g>
<!-- components/notes/NoteBlock.tsx&#45;&gt;components/notes/TextSegment.tsx -->
<g id="edge18" class="edge">
<title>components/notes/NoteBlock.tsx&#45;&gt;components/notes/TextSegment.tsx</title>
<path fill="none" stroke="#757575" d="M989.59,-39.55C1018.36,-35.23 1050.88,-30.36 1080.52,-25.91"/>
<polygon fill="#757575" stroke="#757575" points="1080.86,-29.4 1090.23,-24.46 1079.82,-22.48 1080.86,-29.4"/>
</g>
<!-- components/notes/MathInput.tsx -->
<g id="node14" class="node">
<title>components/notes/MathInput.tsx</title>
<path fill="none" stroke="#c6c5fe" d="M1534.33,-85.75C1534.33,-85.75 1337.67,-85.75 1337.67,-85.75 1333.71,-85.75 1329.75,-81.79 1329.75,-77.83 1329.75,-77.83 1329.75,-69.92 1329.75,-69.92 1329.75,-65.96 1333.71,-62 1337.67,-62 1337.67,-62 1534.33,-62 1534.33,-62 1538.29,-62 1542.25,-65.96 1542.25,-69.92 1542.25,-69.92 1542.25,-77.83 1542.25,-77.83 1542.25,-81.79 1538.29,-85.75 1534.33,-85.75"/>
<text text-anchor="middle" x="1436" y="-68.45" font-family="Arial" font-size="14.00" fill="#c6c5fe">components/notes/MathInput.tsx</text>
</g>
<!-- components/notes/TableBlock.tsx&#45;&gt;components/notes/MathInput.tsx -->
<g id="edge19" class="edge">
<title>components/notes/TableBlock.tsx&#45;&gt;components/notes/MathInput.tsx</title>
<path fill="none" stroke="#757575" d="M1015.1,-89.79C1103.26,-86.45 1227.73,-81.73 1318.25,-78.3"/>
<polygon fill="#757575" stroke="#757575" points="1318.3,-81.8 1328.16,-77.92 1318.03,-74.81 1318.3,-81.8"/>
</g>
<!-- fixGlobal.js -->
<g id="node15" class="node">
<title>fixGlobal.js</title>
<path fill="none" stroke="#cfffac" d="M1653.08,-85.75C1653.08,-85.75 1586.17,-85.75 1586.17,-85.75 1582.21,-85.75 1578.25,-81.79 1578.25,-77.83 1578.25,-77.83 1578.25,-69.92 1578.25,-69.92 1578.25,-65.96 1582.21,-62 1586.17,-62 1586.17,-62 1653.08,-62 1653.08,-62 1657.04,-62 1661,-65.96 1661,-69.92 1661,-69.92 1661,-77.83 1661,-77.83 1661,-81.79 1657.04,-85.75 1653.08,-85.75"/>
<text text-anchor="middle" x="1619.62" y="-68.45" font-family="Arial" font-size="14.00" fill="#cfffac">fixGlobal.js</text>
</g>
<!-- components/notes/MathInput.tsx&#45;&gt;fixGlobal.js -->
<g id="edge15" class="edge">
<title>components/notes/MathInput.tsx&#45;&gt;fixGlobal.js</title>
<path fill="none" stroke="#757575" d="M1542.65,-73.88C1550.94,-73.88 1559.07,-73.88 1566.73,-73.88"/>
<polygon fill="#757575" stroke="#757575" points="1566.46,-77.38 1576.46,-73.88 1566.46,-70.38 1566.46,-77.38"/>
</g>
<!-- components/notes/MathSegment.tsx&#45;&gt;components/notes/MathInput.tsx -->
<g id="edge16" class="edge">
<title>components/notes/MathSegment.tsx&#45;&gt;components/notes/MathInput.tsx</title>
<path fill="none" stroke="#757575" d="M1294.2,-63C1302.18,-63.61 1310.21,-64.23 1318.18,-64.85"/>
<polygon fill="#757575" stroke="#757575" points="1317.64,-68.32 1327.88,-65.6 1318.18,-61.34 1317.64,-68.32"/>
</g>
<!-- components/notes/TextSegment.tsx&#45;&gt;components/AutosizeInput.tsx -->
<g id="edge20" class="edge">
<title>components/notes/TextSegment.tsx&#45;&gt;components/AutosizeInput.tsx</title>
<path fill="none" stroke="#757575" d="M1291.18,-11.88C1302.72,-11.88 1314.42,-11.88 1325.91,-11.88"/>
<polygon fill="#757575" stroke="#757575" points="1325.79,-15.38 1335.79,-11.88 1325.79,-8.38 1325.79,-15.38"/>
</g>
<!-- main.tsx -->
<g id="node18" class="node">
<title>main.tsx</title>
<path fill="none" stroke="#c6c5fe" d="M69.58,-206.75C69.58,-206.75 18.42,-206.75 18.42,-206.75 14.46,-206.75 10.5,-202.79 10.5,-198.83 10.5,-198.83 10.5,-190.92 10.5,-190.92 10.5,-186.96 14.46,-183 18.42,-183 18.42,-183 69.58,-183 69.58,-183 73.54,-183 77.5,-186.96 77.5,-190.92 77.5,-190.92 77.5,-198.83 77.5,-198.83 77.5,-202.79 73.54,-206.75 69.58,-206.75"/>
<text text-anchor="middle" x="44" y="-189.45" font-family="Arial" font-size="14.00" fill="#c6c5fe">main.tsx</text>
</g>
<!-- main.tsx&#45;&gt;App.tsx -->
<g id="edge21" class="edge">
<title>main.tsx&#45;&gt;App.tsx</title>
<path fill="none" stroke="#757575" d="M77.85,-194.88C88.68,-194.88 100.87,-194.88 112.25,-194.88"/>
<polygon fill="#757575" stroke="#757575" points="112.2,-198.38 122.2,-194.88 112.2,-191.38 112.2,-198.38"/>
</g>
<!-- vite&#45;env.d.ts -->
<g id="node19" class="node">
<title>vite&#45;env.d.ts</title>
<path fill="none" stroke="#cfffac" d="M80.08,-248.75C80.08,-248.75 7.92,-248.75 7.92,-248.75 3.96,-248.75 0,-244.79 0,-240.83 0,-240.83 0,-232.92 0,-232.92 0,-228.96 3.96,-225 7.92,-225 7.92,-225 80.08,-225 80.08,-225 84.04,-225 88,-228.96 88,-232.92 88,-232.92 88,-240.83 88,-240.83 88,-244.79 84.04,-248.75 80.08,-248.75"/>
<text text-anchor="middle" x="44" y="-231.45" font-family="Arial" font-size="14.00" fill="#cfffac">vite&#45;env.d.ts</text>
</g>
</g>
</svg>
